<?xml version="1.0" encoding="UTF-8"?>
<svg width="18px" height="19px" viewBox="0 0 18 19" version="1.1" xmlns="http://www.w3.org/2000/svg" xmlns:xlink="http://www.w3.org/1999/xlink">
    <!-- Generator: Sketch 62 (91390) - https://sketch.com -->
    <title>a 2</title>
    <desc>Created with Sketch.</desc>
    <g id="Page-1" stroke="none" stroke-width="1" fill="none" fill-rule="evenodd">
        <g id="Desktop" transform="translate(-376.000000, -606.000000)" fill="#40ACE4" fill-rule="nonzero">
            <g id="a-2" transform="translate(376.000000, 606.867226)">
                <path d="M8.86716636,17.2655838 C8.99737418,17.2655838 9.1015408,17.2265214 9.17966561,17.1483966 L9.17966561,17.1483966 L17.3437086,8.94529117 C17.4478753,8.86716636 17.4999583,8.76299974 17.4999583,8.63279192 C17.4999583,8.50258409 17.4478753,8.39841748 17.3437086,8.32029266 L17.3437086,8.32029266 L9.17966561,0.117187221 C9.1015408,0.0390624069 8.99737418,0 8.86716636,0 C8.73695853,0 8.61977131,0.0390624069 8.5156047,0.117187221 L8.5156047,0.117187221 L7.73435656,0.898435358 C7.65623175,0.976560172 7.61716934,1.08072679 7.61716934,1.21093461 C7.61716934,1.34114244 7.65623175,1.45832966 7.73435656,1.56249627 L7.73435656,1.56249627 L13.7890296,7.61716934 L0.468748882,7.61716934 C0.338541058,7.61716934 0.227863841,7.66274235 0.136718424,7.75388776 C0.0455730067,7.84503318 0,7.9557104 0,8.08591822 L0,8.08591822 L0,9.17966561 C0,9.30987344 0.0455730067,9.42055065 0.136718424,9.51169607 C0.227863841,9.60284149 0.338541058,9.6484145 0.468748882,9.6484145 L0.468748882,9.6484145 L13.7890296,9.6484145 L7.73435656,15.7030876 C7.65623175,15.8072542 7.61716934,15.9244414 7.61716934,16.0546492 C7.61716934,16.184857 7.65623175,16.2890237 7.73435656,16.3671485 L7.73435656,16.3671485 L8.5156047,17.1483966 C8.61977131,17.2265214 8.73695853,17.2655838 8.86716636,17.2655838 Z" id="a"></path>
            </g>
        </g>
    </g>
</svg>