<?xml version="1.0" encoding="UTF-8"?>
<svg width="18px" height="18px" viewBox="0 0 18 18" version="1.1" xmlns="http://www.w3.org/2000/svg" xmlns:xlink="http://www.w3.org/1999/xlink">
    <title>check-circle-regular</title>
    <g id="Page-1" stroke="none" stroke-width="1" fill="none" fill-rule="evenodd">
        <g id="check-circle-regular" fill="#C02032" fill-rule="nonzero">
            <path d="M9,0 C4.02942339,0 0,4.02942339 0,9 C0,13.9705766 4.02942339,18 9,18 C13.9705766,18 18,13.9705766 18,9 C18,4.02942339 13.9705766,0 9,0 Z M9,1.74193548 C13.0112419,1.74193548 16.2580645,4.98814113 16.2580645,9 C16.2580645,13.0112419 13.0118589,16.2580645 9,16.2580645 C4.98875806,16.2580645 1.74193548,13.0118589 1.74193548,9 C1.74193548,4.98875806 4.98814113,1.74193548 9,1.74193548 M14.0880484,6.46936694 L13.2702097,5.64492339 C13.1008427,5.47417742 12.8251089,5.47305242 12.6543629,5.64245565 L7.52465323,10.7309395 L5.35478226,8.54346774 C5.18541532,8.37272177 4.90968145,8.37159677 4.73893548,8.54096371 L3.91445565,9.35880242 C3.74370968,9.52816935 3.74258468,9.80390323 3.9119879,9.97468548 L7.20645968,13.2958306 C7.37582661,13.4665766 7.65156048,13.4677016 7.82230645,13.2982984 L14.0856169,7.08525 C14.2563266,6.91584677 14.2574153,6.6401129 14.0880484,6.46936694 L14.0880484,6.46936694 Z" id="Shape"></path>
        </g>
    </g>
</svg>