<?xml version="1.0" encoding="UTF-8"?>
<svg width="18px" height="16px" viewBox="0 0 18 16" version="1.1" xmlns="http://www.w3.org/2000/svg" xmlns:xlink="http://www.w3.org/1999/xlink">
    <title>icon-twitter</title>
    <g id="Finalized-Updates" stroke="none" stroke-width="1" fill="none" fill-rule="evenodd">
        <g id="FocusArea-01" transform="translate(-1053.000000, -82.000000)" fill="#C02032" fill-rule="nonzero">
            <g id="Local-Nav" transform="translate(0.000000, 59.000000)">
                <g id="Group-4" transform="translate(1013.000000, 22.000000)">
                    <path d="M45.6649493,16.5596491 C52.449231,16.5596491 56.1611248,10.9403616 56.1611248,6.06350788 C56.1611248,5.90362286 56.1611248,5.74366917 56.1496922,5.58378414 C56.8692263,5.05839858 57.4974368,4.40739153 57.9998884,3.67645913 C57.3374831,3.96196565 56.617949,4.16758116 55.8755496,4.24750651 C56.6407455,3.79068234 57.2232255,3.07114823 57.4973681,2.21452567 C56.7891979,2.63712064 55.9897385,2.9454924 55.1560155,3.10537742 C54.4821089,2.38584331 53.5227644,1.94041743 52.4605607,1.94041743 C50.4161815,1.94041743 48.7714978,3.59649945 48.7714978,5.62948029 C48.7714978,5.91502115 48.8057613,6.20052767 48.8628558,6.4746359 C45.8020034,6.31471654 43.072285,4.85281741 41.256318,2.61425539 C40.9364792,3.16247186 40.7537976,3.79064801 40.7537976,4.47591859 C40.7537976,5.75510179 41.4047704,6.88579825 42.3984127,7.54823792 C41.7931361,7.52544135 41.2220201,7.3541237 40.7309324,7.08001547 L40.7309324,7.12567729 C40.7309324,8.91881342 41.9987173,10.4035435 43.6890629,10.7462131 C43.3807254,10.8261384 43.0494884,10.8718346 42.7182858,10.8718346 C42.4784067,10.8718346 42.2499946,10.8490037 42.0215482,10.8147401 C42.4898393,12.2766736 43.8489822,13.338843 45.4708007,13.3731409 C44.2030158,14.3667832 42.6154265,14.9492632 40.8908518,14.9492632 C40.58248,14.9492632 40.2969735,14.9378306 40,14.9036014 C41.6332511,15.9543039 43.5748397,16.5596491 45.6649493,16.5596491 Z" id="icon-twitter"></path>
                </g>
            </g>
        </g>
    </g>
</svg>