<?xml version="1.0" encoding="UTF-8"?>
<svg width="10px" height="10px" viewBox="0 0 10 10" version="1.1" xmlns="http://www.w3.org/2000/svg" xmlns:xlink="http://www.w3.org/1999/xlink">
    <title></title>
    <g id="Finalized-Updates" stroke="none" stroke-width="1" fill="none" fill-rule="evenodd">
        <g id="02-Standards---Overview-(Recommended)-Full-Hero" transform="translate(-261.000000, -4023.000000)" fill="#212121" fill-rule="nonzero">
            <g id="card" transform="translate(70.000000, 3951.000000)">
                <path d="M196.257935,83.3196695 L202.028867,77.5487901 C202.156987,77.4206433 202.156987,77.2128954 202.028867,77.0847219 L196.257935,71.3138692 C196.129814,71.1857224 195.922067,71.1857224 195.79392,71.3138692 L195.600565,71.5071976 C195.472445,71.6353177 195.472445,71.8430924 195.600565,71.9712392 L200.481252,76.8519267 L190.203124,76.8519267 C190.021919,76.8519267 189.875,76.9988456 189.875,77.1800509 L189.875,77.4534878 C189.875,77.6346931 190.021919,77.781612 190.203124,77.781612 L200.481252,77.781612 L195.600565,82.6622995 C195.472445,82.7904196 195.472445,82.9981942 195.600565,83.1263411 L195.79392,83.3196695 C195.922067,83.4477896 196.129814,83.4477896 196.257935,83.3196695 Z" id="" transform="translate(195.999979, 77.316759) rotate(-45.000000) translate(-195.999979, -77.316759) "></path>
            </g>
        </g>
    </g>
</svg>