<?xml version="1.0" encoding="UTF-8"?>
<svg width="16px" height="16px" viewBox="0 0 16 16" version="1.1" xmlns="http://www.w3.org/2000/svg" xmlns:xlink="http://www.w3.org/1999/xlink">
    <title>icon-linkedin</title>
    <g id="Finalized-Updates" stroke="none" stroke-width="1" fill="none" fill-rule="evenodd">
        <g id="FocusArea-01" transform="translate(-1146.000000, -81.000000)" fill="#C02032" fill-rule="nonzero">
            <g id="Local-Nav" transform="translate(0.000000, 59.000000)">
                <g id="Group-4" transform="translate(1013.000000, 22.000000)">
                    <path d="M135.016052,4.05040538 C136.059853,4.05040538 136.907103,3.18557743 136.907103,2.14143243 C136.907103,1.09773374 136.05975,0.250380873 135.016052,0.250380873 C133.972353,0.250380873 133.125,1.09773374 133.125,2.14143243 C133.125,3.18557743 133.971907,4.05040538 135.016052,4.05040538 Z M141.957643,16 L141.957643,10.7933855 C141.957643,9.42229504 142.217778,8.09690071 143.915471,8.09690071 C145.588548,8.09690071 145.613164,9.6613501 145.613164,10.8812759 L145.613164,16 L148.874962,16 L148.874962,10.2238488 C148.874962,7.39727927 148.267454,5.22113318 144.962775,5.22113318 C143.374087,5.22113318 142.309205,6.09299924 141.873255,6.91916914 L141.827559,6.91916914 L141.827559,5.48480443 L138.695845,5.48480443 L138.695845,16 L141.957643,16 Z M136.65047,16 L136.65047,5.48480443 L133.385169,5.48480443 L133.385169,16 L136.65047,16 Z" id="icon-linkedin"></path>
                </g>
            </g>
        </g>
    </g>
</svg>