<?xml version="1.0" encoding="UTF-8"?>
<svg width="16px" height="17px" viewBox="0 0 16 17" version="1.1" xmlns="http://www.w3.org/2000/svg" xmlns:xlink="http://www.w3.org/1999/xlink">
    <title>icon-instagram</title>
    <g id="Finalized-Updates" stroke="none" stroke-width="1" fill="none" fill-rule="evenodd">
        <g id="FocusArea-01" transform="translate(-1101.000000, -82.000000)" fill="#C02032" fill-rule="nonzero">
            <g id="Local-Nav" transform="translate(0.000000, 59.000000)">
                <g id="Group-4" transform="translate(1013.000000, 22.000000)">
                    <path d="M99.2519266,17.0687612 C100.514047,17.0089888 101.632006,16.7207014 102.553104,15.7961011 C103.474168,14.8750027 103.762456,13.7570435 103.82573,12.4949234 C103.899579,11.1941452 103.899579,7.29884887 103.82573,5.99807072 C103.765992,4.73595062 103.477705,3.6179914 102.553104,2.69689298 C101.632006,1.7758289 100.514047,1.48754147 99.2519266,1.42426723 C97.9511484,1.35041869 94.0523159,1.35041869 92.7515377,1.42426723 C91.4929539,1.48400525 90.3749946,1.77229268 89.4503943,2.6933911 C88.525794,3.61448952 88.2410085,4.73244874 88.1777342,5.99456884 C88.1445179,6.579919 88.1262488,7.69136824 88.1229272,8.85542738 L88.1229272,9.63406482 C88.1262488,10.798124 88.1445179,11.9095732 88.1777342,12.4949234 C88.2375066,13.7570435 88.525794,14.8750027 89.4503943,15.7961011 C90.3749946,16.7171995 91.489452,17.0054526 92.7515377,17.0687612 C94.0523159,17.1425754 97.9511484,17.1425754 99.2519266,17.0687612 Z M96.0034831,15.7046745 C94.8574058,15.7046745 92.3929723,15.7961011 91.3593673,15.388269 C90.6703202,15.1140577 90.1394415,14.5832134 89.8617283,13.89063 C89.4503943,12.8535231 89.5453228,10.3925915 89.5453228,9.24651421 C89.5453228,8.10040259 89.4538962,5.63596908 89.8617283,4.60236406 C90.1359396,3.91331693 90.6667839,3.38243822 91.3593673,3.10472511 C92.3964742,2.6933911 94.8574058,2.78831962 96.0034831,2.78831962 C97.1495947,2.78831962 99.6140282,2.69689298 100.647633,3.10472511 C101.33668,3.37893634 101.867559,3.90978072 102.145272,4.60236406 C102.556606,5.63947096 102.461678,8.10040259 102.461678,9.24651421 C102.461678,10.3925915 102.556606,12.857025 102.145272,13.89063 C101.871061,14.5796772 101.340217,15.1105559 100.647633,15.388269 C99.6105264,15.799603 97.1495947,15.7046745 96.0034831,15.7046745 Z M100.208181,5.98399452 C100.728486,5.98399452 101.15036,5.56565674 101.15036,5.04181613 C101.15036,4.52151174 100.728486,4.09963775 100.208181,4.09963775 C99.6878768,4.09963775 99.2660028,4.52151174 99.2660028,5.04181613 C99.2660028,5.56212053 99.6843406,5.98399452 100.208181,5.98399452 Z M96.0034831,13.2859371 C98.2394359,13.2859371 100.04294,11.4824326 100.04294,9.24651421 C100.04294,7.01056144 98.2394359,5.20705698 96.0034831,5.20705698 C93.7675647,5.20705698 91.9640602,7.01056144 91.9640602,9.24651421 C91.9640602,11.4824326 93.7675647,13.2859371 96.0034831,13.2859371 Z M96.0034831,11.8726524 C94.5585784,11.8726524 93.377345,10.6949208 93.377345,9.24651421 C93.377345,7.7980733 94.5550765,6.62034173 96.0034831,6.62034173 C97.451924,6.62034173 98.6296556,7.7980733 98.6296556,9.24651421 C98.6296556,10.6949208 97.4484221,11.8726524 96.0034831,11.8726524 Z" id="icon-instagram"></path>
                </g>
            </g>
        </g>
    </g>
</svg>