<?xml version="1.0" encoding="UTF-8"?>
<svg width="107px" height="200px" viewBox="0 0 107 200" version="1.1" xmlns="http://www.w3.org/2000/svg" xmlns:xlink="http://www.w3.org/1999/xlink">
    <title>focus-area-battery-safety</title>
    <g id="Page-1" stroke="none" stroke-width="1" fill="none" fill-rule="evenodd">
        <g id="focus-area-battery-safety" fill="#007584" fill-rule="nonzero">
            <g id="noun_1211961">
                <path d="M15.6545209,11.6059379 L37.7867746,11.6059379 L37.7867746,4.31848853 C37.7867746,1.88933873 39.6761134,0 42.1052632,0 L63.6977058,0 C66.1268556,0 68.0161943,1.88933873 68.0161943,4.31848853 L68.0161943,11.6059379 L90.148448,11.6059379 C99.8650472,11.6059379 106.072874,21.0526316 106.072874,29.6896086 L106.072874,181.646424 C106.072874,190.283401 99.8650472,200 90.148448,200 L15.6545209,200 C5.93792173,200 0,190.283401 0,181.646424 L0,29.6896086 C0,21.0526316 5.93792173,11.6059379 15.6545209,11.6059379 Z M90.148448,18.3535762 L15.6545209,18.3535762 C9.44669366,18.3535762 5.66801619,24.291498 5.66801619,29.6896086 L5.66801619,181.646424 C5.66801619,187.044534 9.44669366,192.982456 15.6545209,192.982456 L90.148448,192.982456 C96.3562753,192.982456 100.134953,187.044534 100.134953,181.646424 L100.134953,29.6896086 C100.134953,24.291498 96.3562753,18.3535762 90.148448,18.3535762 Z" id="Shape"></path>
                <polygon id="Shape" points="60.1012604 56.8791701 30.2413212 108.559834 53.5846008 105.111395 39.9670628 143.850943 75.6681726 90.8826297 49.0802032 94.3048436"></polygon>
            </g>
        </g>
    </g>
</svg>