<?xml version="1.0" encoding="UTF-8"?>
<svg width="18px" height="17px" viewBox="0 0 18 17" version="1.1" xmlns="http://www.w3.org/2000/svg" xmlns:xlink="http://www.w3.org/1999/xlink">
    <title></title>
    <g id="Finalized-Updates" stroke="none" stroke-width="1" fill="none" fill-rule="evenodd">
        <g id="02-Standards---Overview-(Recommended)-Full-Hero" transform="translate(-93.000000, -3986.000000)" fill="#C02032" fill-rule="nonzero">
            <g id="card" transform="translate(70.000000, 3951.000000)">
                <path d="M39.3124611,51.1249973 C40.2440995,51.1249973 40.9999571,50.3691397 40.9999571,49.4375013 L40.9999571,37.0625308 C40.9999571,36.1308924 40.2440995,35.3750349 39.3124611,35.3750349 L24.687496,35.3750349 C23.7558576,35.3750349 23,36.1308924 23,37.0625308 L23,49.4375013 C23,50.3691397 23.7558576,51.1249973 24.687496,51.1249973 L39.3124611,51.1249973 Z M26.5156166,38.7500268 L25.10937,38.7500268 C24.877353,38.7500268 24.687496,38.5601698 24.687496,38.3281528 L24.687496,37.4844048 C24.687496,37.2523879 24.877353,37.0625308 25.10937,37.0625308 L26.5156166,37.0625308 C26.7476336,37.0625308 26.9374906,37.2523879 26.9374906,37.4844048 L26.9374906,38.3281528 C26.9374906,38.5601698 26.7476336,38.7500268 26.5156166,38.7500268 Z M38.8905871,38.7500268 L29.0468606,38.7500268 C28.8148436,38.7500268 28.6249866,38.5601698 28.6249866,38.3281528 L28.6249866,37.4844048 C28.6249866,37.2523879 28.8148436,37.0625308 29.0468606,37.0625308 L38.8905871,37.0625308 C39.1226041,37.0625308 39.3124611,37.2523879 39.3124611,37.4844048 L39.3124611,38.3281528 C39.3124611,38.5601698 39.1226041,38.7500268 38.8905871,38.7500268 Z M39.1015241,49.4375013 L24.898433,49.4375013 C24.7824245,49.4375013 24.687496,49.3425728 24.687496,49.2265643 L24.687496,40.1562735 L39.3124611,40.1562735 L39.3124611,49.2265643 C39.3124611,49.3425728 39.2175326,49.4375013 39.1015241,49.4375013 Z" id=""></path>
            </g>
        </g>
    </g>
</svg>