<?xml version="1.0" encoding="UTF-8"?>
<svg width="16px" height="16px" viewBox="0 0 16 16" version="1.1" xmlns="http://www.w3.org/2000/svg" xmlns:xlink="http://www.w3.org/1999/xlink">
    <title>Shape 2</title>
    <g id="Finalized-Updates" stroke="none" stroke-width="1" fill="none" fill-rule="evenodd">
        <g id="02-1-Standards---How-We-Help---Detail" transform="translate(-1016.000000, -83.000000)" fill="#C02032" fill-rule="nonzero">
            <g id="Local-Nav" transform="translate(-40.000000, 59.000000)">
                <g id="Shape-2" transform="translate(1056.000000, 24.000000)">
                    <path d="M14.4,0 L1.6,0 C0.717857143,0 0,0.717857143 0,1.6 L0,14.4 C0,15.2821429 0.717857143,16 1.6,16 L14.4,16 C15.2821429,16 16,15.2821429 16,14.4 L16,1.6 C16,0.717857143 15.2821429,0 14.4,0 Z M13.4642857,5.31428571 C13.4142857,6.43928571 12.6285714,7.98214286 11.1071429,9.93571429 C9.53571429,11.9785714 8.20357143,13 7.11785714,13 C6.44285714,13 5.875,12.3785714 5.40714286,11.1321429 C4.49642857,7.8 4.10714286,5.84642857 3.35714286,5.84642857 C3.27142857,5.84642857 2.96785714,6.02857143 2.45,6.38928571 L1.90714286,5.68928571 C3.23928571,4.51785714 4.51071429,3.21785714 5.30714286,3.14642857 C6.20714286,3.06071429 6.76071429,3.675 6.96785714,4.99285714 C7.70714286,9.67857143 8.03571429,10.3857143 9.38214286,8.26428571 C9.86428571,7.5 10.125,6.91785714 10.1607143,6.51785714 C10.2857143,5.33214286 9.23571429,5.41428571 8.525,5.71785714 C9.09285714,3.85714286 10.1785714,2.95357143 11.7821429,3.00357143 C12.9714286,3.03571429 13.5321429,3.80714286 13.4642857,5.31428571 Z" id="Shape"></path>
                </g>
            </g>
        </g>
    </g>
</svg>