<?xml version="1.0" encoding="UTF-8"?>
<svg width="148px" height="200px" viewBox="0 0 148 200" version="1.1" xmlns="http://www.w3.org/2000/svg" xmlns:xlink="http://www.w3.org/1999/xlink">
    <title>focus-area-fire-safety</title>
    <g id="Page-1" stroke="none" stroke-width="1" fill="none" fill-rule="evenodd">
        <g id="focus-area-fire-safety" transform="translate(2.000000, 2.000000)" fill="#C02032" fill-rule="nonzero" stroke="#C02032" stroke-width="3">
            <g id="Fire">
                <g id="noun_1463757">
                    <path d="M73.1679688,195.998047 C71.0625,195.998047 69.03125,195.814453 67.0703124,195.636719 C35.8671872,191.804688 11.7460936,164.679688 9.6445312,131.132812 C8.1953124,108.185547 1.5585936,105.351562 1.4921876,105.326172 C0.6367188,104.99414 0.0703124,104.109375 0.183594,103.201172 C0.2929692,102.291015 0.9609376,101.558594 1.871094,101.443359 C8.183594,100.61914 18.5742192,109.236328 24.1562504,114.394531 C22.3906252,73.316406 30.1679692,66.2929688 31.0976568,65.607422 C31.7148444,65.1484376 32.550782,65.0859376 33.2304692,65.4531252 C33.9101568,65.8183596 34.3203128,66.5429688 34.2812504,67.3164064 C33.523438,82.3144532 37.214844,90.9375 39.929688,95.1679688 C42.3476568,82.111328 51.085938,74.107422 51.4960944,73.736328 C52.1250008,73.173828 53.0312508,73.0585936 53.773438,73.4570312 C54.5156256,73.8515624 54.9335944,74.6679688 54.8164068,75.5 C53.7265632,83.2773436 56.1914068,94.78125 56.5937504,96.5859376 C57.8437504,98.9140628 59.2226568,100.283203 60.492188,100.451172 C61.6835944,100.603516 62.710938,99.7695312 63.1015632,99.4082032 C87.2734384,49.0859376 67.0585944,3.2832032 66.8515632,2.826172 C66.4687508,1.982422 66.7148444,0.9843752 67.4492196,0.4179688 C68.1835948,-0.1503904 69.207032,-0.1347656 69.9296884,0.4453124 C70.4960948,0.9042968 126.093751,46.7968748 120.460938,121.53125 C121.988282,121.652344 123.195314,121.294922 124.207032,120.464844 C127.925782,117.419922 129.375001,108.162109 128.51172,92.9531248 C128.460938,92.0722656 128.992188,91.2636716 129.820313,90.9609372 C130.648438,90.6582028 131.57422,90.9296872 132.10547,91.6386716 C133.140626,93.0117184 134.140626,94.5273436 135.16797,96.271484 C145.851563,114.49414 146.796876,136.289062 137.773438,156.074218 C128.660157,176.052734 110.613282,190.333984 89.5039072,194.277344 C89.4960948,194.277344 89.488282,194.279297 89.4804696,194.28125 C83.8476572,195.267578 78.519532,195.830078 73.1835944,195.998047 C73.1796876,195.998047 73.1718752,195.998047 73.1679688,195.998047 Z M8.3281252,107.302734 C10.6054688,111.488281 12.8632816,118.652344 13.6367188,130.88086 C15.6171876,162.507813 38.2656252,188.06836 67.4921876,191.660156 C69.3281252,191.824219 71.2226564,192 73.1210936,192 C78.1953124,191.837891 83.3398436,191.294922 88.78125,190.341797 C108.605469,186.636719 125.5625,173.207031 134.132812,154.414062 C142.3125,136.490234 141.78125,116.826172 132.75,100.128906 C132.828125,112.65039 130.878906,120.169922 126.742188,123.560547 C124.359375,125.509766 121.359375,126.039062 117.816406,125.115234 C116.871094,124.869141 116.242188,123.976562 116.328125,123.003906 C121.527344,64.0625 87.4179688,23.236328 73.3125,9.0566408 C78.1406252,24.7539064 85.7265624,61.8242188 66.5585936,101.451172 C66.4804684,101.613281 66.378906,101.765625 66.2578124,101.902344 C65.9921872,102.207032 63.5546872,104.855469 60.0273436,104.423828 C57.285156,104.087891 54.8945312,101.998047 52.9296872,98.2089848 C52.851562,98.0625004 52.7929684,97.9082036 52.757812,97.7480472 C52.6523432,97.3066408 50.695312,88.929688 50.5507808,80.9062504 C47.5820308,84.9316412 43.8046872,91.6464848 43.3554684,100.152344 C43.316406,100.898438 42.8632808,101.5625 42.1835932,101.869141 C41.4960932,102.177734 40.7031244,102.078125 40.1171868,101.613282 C39.7226556,101.300782 31.6562492,94.6738284 30.355468,76.3691408 C28.6210928,83.291016 27.0585928,96.1171876 28.4062492,119.236328 C28.4570304,120.070313 27.980468,120.845704 27.2187492,121.181641 C26.4570304,121.515625 25.5664056,121.345703 24.980468,120.751953 C20.7031252,116.386719 13.7890624,110.345703 8.3281252,107.302734 Z" id="Shape"></path>
                </g>
                <g id="noun_1463757">
                    <path d="M73.1679688,195.998047 C71.0625,195.998047 69.03125,195.814453 67.0703124,195.636719 C35.8671872,191.804688 11.7460936,164.679688 9.6445312,131.132812 C8.1953124,108.185547 1.5585936,105.351562 1.4921876,105.326172 C0.6367188,104.99414 0.0703124,104.109375 0.183594,103.201172 C0.2929692,102.291015 0.9609376,101.558594 1.871094,101.443359 C8.183594,100.61914 18.5742192,109.236328 24.1562504,114.394531 C22.3906252,73.316406 30.1679692,66.2929688 31.0976568,65.607422 C31.7148444,65.1484376 32.550782,65.0859376 33.2304692,65.4531252 C33.9101568,65.8183596 34.3203128,66.5429688 34.2812504,67.3164064 C33.523438,82.3144532 37.214844,90.9375 39.929688,95.1679688 C42.3476568,82.111328 51.085938,74.107422 51.4960944,73.736328 C52.1250008,73.173828 53.0312508,73.0585936 53.773438,73.4570312 C54.5156256,73.8515624 54.9335944,74.6679688 54.8164068,75.5 C53.7265632,83.2773436 56.1914068,94.78125 56.5937504,96.5859376 C57.8437504,98.9140628 59.2226568,100.283203 60.492188,100.451172 C61.6835944,100.603516 62.710938,99.7695312 63.1015632,99.4082032 C87.2734384,49.0859376 67.0585944,3.2832032 66.8515632,2.826172 C66.4687508,1.982422 66.7148444,0.9843752 67.4492196,0.4179688 C68.1835948,-0.1503904 69.207032,-0.1347656 69.9296884,0.4453124 C70.4960948,0.9042968 126.093751,46.7968748 120.460938,121.53125 C121.988282,121.652344 123.195314,121.294922 124.207032,120.464844 C127.925782,117.419922 129.375001,108.162109 128.51172,92.9531248 C128.460938,92.0722656 128.992188,91.2636716 129.820313,90.9609372 C130.648438,90.6582028 131.57422,90.9296872 132.10547,91.6386716 C133.140626,93.0117184 134.140626,94.5273436 135.16797,96.271484 C145.851563,114.49414 146.796876,136.289062 137.773438,156.074218 C128.660157,176.052734 110.613282,190.333984 89.5039072,194.277344 C89.4960948,194.277344 89.488282,194.279297 89.4804696,194.28125 C83.8476572,195.267578 78.519532,195.830078 73.1835944,195.998047 C73.1796876,195.998047 73.1718752,195.998047 73.1679688,195.998047 Z M8.3281252,107.302734 C10.6054688,111.488281 12.8632816,118.652344 13.6367188,130.88086 C15.6171876,162.507813 38.2656252,188.06836 67.4921876,191.660156 C69.3281252,191.824219 71.2226564,192 73.1210936,192 C78.1953124,191.837891 83.3398436,191.294922 88.78125,190.341797 C108.605469,186.636719 125.5625,173.207031 134.132812,154.414062 C142.3125,136.490234 141.78125,116.826172 132.75,100.128906 C132.828125,112.65039 130.878906,120.169922 126.742188,123.560547 C124.359375,125.509766 121.359375,126.039062 117.816406,125.115234 C116.871094,124.869141 116.242188,123.976562 116.328125,123.003906 C121.527344,64.0625 87.4179688,23.236328 73.3125,9.0566408 C78.1406252,24.7539064 85.7265624,61.8242188 66.5585936,101.451172 C66.4804684,101.613281 66.378906,101.765625 66.2578124,101.902344 C65.9921872,102.207032 63.5546872,104.855469 60.0273436,104.423828 C57.285156,104.087891 54.8945312,101.998047 52.9296872,98.2089848 C52.851562,98.0625004 52.7929684,97.9082036 52.757812,97.7480472 C52.6523432,97.3066408 50.695312,88.929688 50.5507808,80.9062504 C47.5820308,84.9316412 43.8046872,91.6464848 43.3554684,100.152344 C43.316406,100.898438 42.8632808,101.5625 42.1835932,101.869141 C41.4960932,102.177734 40.7031244,102.078125 40.1171868,101.613282 C39.7226556,101.300782 31.6562492,94.6738284 30.355468,76.3691408 C28.6210928,83.291016 27.0585928,96.1171876 28.4062492,119.236328 C28.4570304,120.070313 27.980468,120.845704 27.2187492,121.181641 C26.4570304,121.515625 25.5664056,121.345703 24.980468,120.751953 C20.7031252,116.386719 13.7890624,110.345703 8.3281252,107.302734 Z" id="Shape"></path>
                </g>
            </g>
        </g>
    </g>
</svg>