<?xml version="1.0" encoding="UTF-8"?>
<svg width="21px" height="14px" viewBox="0 0 21 14" version="1.1" xmlns="http://www.w3.org/2000/svg" xmlns:xlink="http://www.w3.org/1999/xlink">
    <title>icon-youtube</title>
    <g id="Finalized-Updates" stroke="none" stroke-width="1" fill="none" fill-rule="evenodd">
        <g id="FocusArea-01" transform="translate(-1191.000000, -83.000000)" fill="#C02032" fill-rule="nonzero">
            <g id="Local-Nav" transform="translate(0.000000, 59.000000)">
                <g id="Group-4" transform="translate(1013.000000, 22.000000)">
                    <path d="M192.457004,15.9232309 L192.969818,15.9014123 C194.24454,15.8422597 195.439787,15.7476155 196.001285,15.5961847 C196.827352,15.3739868 197.477947,14.7464286 197.698772,13.9150059 C198.046484,12.6088994 198.092846,10.0730227 198.099027,9.4200086 L198.099027,9.10728502 C198.092846,8.45427779 198.046484,5.9184269 197.698772,4.61232039 C197.477947,3.78086333 196.827352,3.1260454 196.001285,2.90384745 C195.4398,2.75241672 194.244556,2.65777252 192.969833,2.5986199 L192.457018,2.57680125 C190.913741,2.51672111 189.362433,2.50366021 188.760885,2.50082089 L188.239068,2.50082089 C187.069397,2.5063418 182.30883,2.55050909 180.998666,2.90384745 C180.172599,3.12607974 179.522004,3.78086333 179.30118,4.61232039 C178.953468,5.9184269 178.907106,8.45427779 178.900925,9.10728502 L178.899974,9.22313899 C178.899974,9.23640519 178.899974,9.24653194 178.899974,9.25334214 L178.899974,9.26364597 C178.899974,9.26364597 178.899974,9.2776207 178.899974,9.3041534 L178.900925,9.4200086 C178.907106,10.0730227 178.953468,12.6088994 179.30118,13.9150059 C179.522004,14.7464286 180.172599,15.3739868 180.998666,15.5961847 C182.30883,15.9495231 187.069397,15.9936904 188.239068,15.9992113 L188.760884,15.9992113 C189.362429,15.996372 190.913729,15.9833111 192.457004,15.9232309 L192.457004,15.9232309 Z M186.536312,12.1184365 L186.536312,6.40885542 L191.554477,9.26371464 L186.536312,12.1184365 Z" id="icon-youtube"></path>
                </g>
            </g>
        </g>
    </g>
</svg>