<?xml version="1.0" encoding="UTF-8"?>
<svg width="10px" height="10px" viewBox="0 0 10 10" version="1.1" xmlns="http://www.w3.org/2000/svg" xmlns:xlink="http://www.w3.org/1999/xlink">
    <title> 2</title>
    <g id="Finalized-Updates" stroke="none" stroke-width="1" fill="none" fill-rule="evenodd">
        <g id="Homepage-Search" transform="translate(-1154.000000, -25.000000)" fill="#000000" fill-rule="nonzero">
            <g id="hamburger-mainNav" transform="translate(0.000000, -3.000000)">
                <g id="-2" transform="translate(1153.999992, 28.000019)">
                    <path d="M9.219346,9.92655867 L9.92655867,9.219346 C10.0240316,9.12187309 10.0240316,8.9634262 9.92655867,8.86592277 L6.06063161,5 L9.92655867,1.13406865 C10.0240316,1.03656522 10.0240316,0.878118329 9.92655867,0.780645417 L9.219346,0.0734327473 C9.12187309,-0.0240401649 8.9634262,-0.0240401649 8.86592277,0.0734327473 L5,3.93935981 L1.13406865,0.0731275722 C1.03656522,-0.0243758574 0.878118329,-0.0243758574 0.780645417,0.0731275722 L0.0731275722,0.780309724 C-0.0243758574,0.877813154 -0.0243758574,1.03626004 0.0731275722,1.13376347 L3.93935981,5 L0.0731275722,8.86592277 C-0.0243758574,8.9634262 -0.0243758574,9.12187309 0.0731275722,9.219346 L0.780309724,9.92655867 C0.877813154,10.0240316 1.03626004,10.0240316 1.13376347,9.92655867 L5,6.06063161 L8.86592277,9.92655867 C8.9634262,10.0240316 9.12187309,10.0240316 9.219346,9.92655867 Z" id=""></path>
                </g>
            </g>
        </g>
    </g>
</svg>